<svg xmlns="http://www.w3.org/2000/svg" xmlns:xlink="http://www.w3.org/1999/xlink" width="500" zoomAndPan="magnify" viewBox="0 0 375 374.999991" height="500" preserveAspectRatio="xMidYMid meet" version="1.0"><defs><g/><clipPath id="087aa1157b"><rect x="0" width="97" y="0" height="112"/></clipPath><clipPath id="6044e0f10f"><path d="M 78.148438 158.722656 L 146.398438 158.722656 L 146.398438 226.972656 L 78.148438 226.972656 Z M 78.148438 158.722656 " clip-rule="nonzero"/></clipPath><clipPath id="2d8e6113a3"><rect x="0" width="70" y="0" height="112"/></clipPath></defs><rect x="-37.5" width="450" fill="#ffffff" y="-37.499999" height="449.999989" fill-opacity="1"/><rect x="-37.5" width="450" fill="#000000" y="-37.499999" height="449.999989" fill-opacity="1"/><g transform="matrix(1, 0, 0, 1, 109, 138)"><g clip-path="url(#087aa1157b)"><g fill="#ffffff" fill-opacity="1"><g transform="translate(1.42424, 88.858019)"><g><path d="M 2.609375 -87.03125 L 16.625 -87.03125 L 50.046875 -16.890625 L 76.15625 -87.03125 L 91.46875 -87.03125 L 91.46875 -86.15625 C 88.976562 -86.15625 87.164062 -85.398438 86.03125 -83.890625 C 84.894531 -82.390625 84.179688 -79.941406 83.890625 -76.546875 C 83.609375 -73.148438 83.46875 -68.582031 83.46875 -62.84375 L 83.46875 -24.1875 C 83.46875 -18.507812 83.609375 -13.957031 83.890625 -10.53125 C 84.179688 -7.101562 84.894531 -4.632812 86.03125 -3.125 C 87.164062 -1.625 88.976562 -0.875 91.46875 -0.875 L 91.46875 0 L 67.96875 0 L 67.96875 -0.875 C 70.46875 -0.875 72.28125 -1.625 73.40625 -3.125 C 74.539062 -4.632812 75.253906 -7.101562 75.546875 -10.53125 C 75.835938 -13.957031 75.984375 -18.507812 75.984375 -24.1875 L 75.984375 -84.15625 C 72.847656 -75.800781 69.738281 -67.472656 66.65625 -59.171875 C 63.582031 -50.878906 60.453125 -42.394531 57.265625 -33.71875 C 54.078125 -25.050781 50.679688 -15.929688 47.078125 -6.359375 L 46.296875 -6.359375 C 43.566406 -12.210938 41.023438 -17.648438 38.671875 -22.671875 C 36.328125 -27.691406 34.097656 -32.492188 31.984375 -37.078125 C 29.867188 -41.660156 27.734375 -46.226562 25.578125 -50.78125 C 23.429688 -55.332031 21.226562 -60.0625 18.96875 -64.96875 C 16.707031 -69.875 14.242188 -75.171875 11.578125 -80.859375 L 11.484375 -43.515625 L 11.484375 -32.46875 C 11.484375 -26.132812 11.890625 -20.910156 12.703125 -16.796875 C 13.515625 -12.679688 14.617188 -9.460938 16.015625 -7.140625 C 17.410156 -4.816406 18.976562 -3.191406 20.71875 -2.265625 C 22.457031 -1.335938 24.253906 -0.875 26.109375 -0.875 L 26.109375 0 L 2.609375 0 L 2.609375 -0.875 C 5.109375 -0.875 6.921875 -1.625 8.046875 -3.125 C 9.179688 -4.632812 9.894531 -7.101562 10.1875 -10.53125 C 10.476562 -13.957031 10.625 -18.507812 10.625 -24.1875 L 10.625 -62.84375 C 10.625 -68.582031 10.476562 -73.148438 10.1875 -76.546875 C 9.894531 -79.941406 9.179688 -82.390625 8.046875 -83.890625 C 6.921875 -85.398438 5.109375 -86.15625 2.609375 -86.15625 Z M 2.609375 -87.03125 "/></g></g></g></g></g><g clip-path="url(#6044e0f10f)"><path fill="#ffffff" d="M 127.191406 223.542969 C 124.878906 224.65625 122.476562 225.515625 119.90625 226.117188 C 117.417969 226.714844 114.847656 226.972656 112.1875 226.972656 C 102.757812 226.972656 94.269531 223.113281 88.09375 216.941406 C 81.921875 210.769531 78.0625 202.28125 78.0625 192.847656 C 78.0625 183.417969 81.921875 174.929688 88.09375 168.753906 C 94.269531 162.582031 102.84375 158.722656 112.1875 158.722656 C 121.621094 158.722656 130.109375 162.582031 136.28125 168.753906 C 142.457031 174.929688 146.3125 183.417969 146.3125 192.847656 C 146.3125 194.648438 146.140625 196.449219 145.886719 198.25 C 145.628906 200.050781 145.199219 201.765625 144.597656 203.480469 L 144.085938 203.308594 C 144.085938 203.394531 144.085938 203.480469 144.085938 203.566406 C 144.085938 205.023438 143.484375 206.394531 142.539062 207.339844 C 141.597656 208.28125 140.226562 208.882812 138.769531 208.882812 C 137.3125 208.882812 135.9375 208.28125 134.996094 207.339844 C 134.050781 206.394531 133.453125 205.023438 133.453125 203.566406 C 133.453125 202.109375 134.050781 200.738281 134.996094 199.792969 C 135.9375 198.851562 137.3125 198.25 138.769531 198.25 C 140.226562 198.25 141.597656 198.851562 142.539062 199.792969 C 143.226562 200.480469 143.742188 201.335938 144 202.367188 C 144.425781 200.992188 144.769531 199.535156 144.941406 198.164062 C 145.199219 196.449219 145.371094 194.734375 145.371094 192.933594 C 145.371094 183.757812 141.683594 175.527344 135.683594 169.527344 C 129.679688 163.523438 121.363281 159.835938 112.273438 159.835938 C 103.101562 159.835938 94.867188 163.523438 88.867188 169.527344 C 82.863281 175.527344 79.179688 183.757812 79.179688 192.933594 C 79.179688 202.109375 82.863281 210.339844 88.867188 216.339844 C 94.867188 222.34375 103.1875 226.03125 112.273438 226.03125 C 114.847656 226.03125 117.332031 225.773438 119.734375 225.171875 C 122.21875 224.574219 124.535156 223.800781 126.765625 222.6875 Z M 127.191406 223.542969 " fill-opacity="1" fill-rule="nonzero"/></g><path fill="#ffffff" d="M 185.765625 142.726562 C 188.429688 134.792969 192.964844 127.257812 199.230469 121.925781 C 204.632812 117.324219 211.234375 114.457031 219.03125 114.457031 C 227.433594 114.457031 235.101562 117.523438 240.96875 122.660156 C 246.902344 127.859375 251.035156 135.058594 252.167969 143.261719 L 251.96875 143.261719 C 252.035156 143.660156 252.101562 143.992188 252.101562 144.394531 C 252.101562 147.726562 249.433594 150.394531 246.101562 150.394531 C 242.769531 150.394531 240.101562 147.726562 240.101562 144.394531 C 240.101562 141.058594 242.769531 138.394531 246.101562 138.394531 C 248.101562 138.394531 249.835938 139.328125 250.902344 140.792969 C 249.367188 133.859375 245.632812 127.726562 240.433594 123.257812 C 234.699219 118.257812 227.234375 115.257812 219.03125 115.257812 C 211.5 115.257812 205.03125 118.058594 199.765625 122.527344 C 193.699219 127.726562 189.230469 135.125 186.5625 142.925781 L 185.765625 142.660156 Z M 185.765625 142.726562 " fill-opacity="1" fill-rule="nonzero"/><g transform="matrix(1, 0, 0, 1, 206, 138)"><g clip-path="url(#2d8e6113a3)"><g fill="#ffffff" fill-opacity="1"><g transform="translate(1.350381, 88.858019)"><g><path d="M 2.609375 -87.03125 L 26.109375 -87.03125 L 26.109375 -86.15625 C 23.609375 -86.15625 21.789062 -85.398438 20.65625 -83.890625 C 19.53125 -82.390625 18.820312 -79.941406 18.53125 -76.546875 C 18.25 -73.148438 18.109375 -68.582031 18.109375 -62.84375 L 18.109375 -0.875 L 29.15625 -0.875 C 30.550781 -0.875 32.363281 -0.914062 34.59375 -1 C 36.832031 -1.082031 39.253906 -1.269531 41.859375 -1.5625 C 44.472656 -1.851562 47.070312 -2.300781 49.65625 -2.90625 C 52.238281 -3.519531 54.613281 -4.316406 56.78125 -5.296875 C 58.957031 -6.285156 60.695312 -7.519531 62 -9 C 63.3125 -10.488281 63.96875 -12.273438 63.96875 -14.359375 L 64.84375 -14.359375 L 64.84375 0 L 2.609375 0 L 2.609375 -0.875 C 5.109375 -0.875 6.921875 -1.625 8.046875 -3.125 C 9.179688 -4.632812 9.894531 -7.101562 10.1875 -10.53125 C 10.476562 -13.957031 10.625 -18.507812 10.625 -24.1875 L 10.625 -62.84375 C 10.625 -68.582031 10.476562 -73.148438 10.1875 -76.546875 C 9.894531 -79.941406 9.179688 -82.390625 8.046875 -83.890625 C 6.921875 -85.398438 5.109375 -86.15625 2.609375 -86.15625 Z M 2.609375 -87.03125 "/></g></g></g></g></g></svg>